<svg width="51" height="126" viewBox="0 0 51 126" fill="none" xmlns="http://www.w3.org/2000/svg">
<path d="M39.4821 119.167C39.1998 119.167 38.8906 119.185 38.5679 119.237C38.4873 119.255 38.4066 119.272 38.3259 119.29C38.2452 119.307 38.1646 119.325 38.0705 119.342C37.9091 119.377 37.7344 119.43 37.5596 119.5C36.847 119.745 36.0807 120.148 35.3009 120.621C34.548 121.059 33.7817 121.549 33.096 122.005C32.4103 122.46 31.8053 122.898 31.3751 123.196C30.9449 123.494 30.6895 123.686 30.6895 123.686C30.6895 123.686 30.7567 123.721 30.8911 123.791C31.0256 123.844 31.2138 123.949 31.4423 124.037C31.9263 124.212 32.5986 124.44 33.3649 124.65C33.5531 124.702 33.7548 124.755 33.9565 124.79C34.1581 124.825 34.3732 124.86 34.5749 124.895C34.9917 124.948 35.4219 125 35.8521 125.018C36.6991 125.07 37.573 124.93 38.3125 124.667C39.7914 124.142 40.7997 122.951 41.4181 121.97C42.05 120.971 42.3055 120.148 42.3055 120.148C42.3055 120.148 41.7946 119.728 40.961 119.465C40.5577 119.307 40.0603 119.167 39.4821 119.167Z" fill="#DBDBDB"/>
<path d="M41.7523 111.512C41.4027 110.794 40.9456 110.163 40.475 109.55C40.2465 109.253 39.991 108.972 39.749 108.709C39.628 108.569 39.507 108.447 39.386 108.342C39.265 108.219 39.1575 108.096 39.0365 107.974C38.5794 107.518 38.1626 107.15 37.8668 106.905C37.571 106.643 37.3828 106.485 37.3828 106.485C37.3828 106.485 37.3828 106.835 37.3963 107.396C37.4097 107.974 37.45 108.745 37.5441 109.638C37.6383 110.514 37.7861 111.512 38.0013 112.476C38.2298 113.404 38.5256 114.315 38.8886 115.068C38.9693 115.261 39.0768 115.436 39.1709 115.611C39.2113 115.699 39.265 115.769 39.3188 115.856C39.3726 115.926 39.4129 115.996 39.4667 116.067C39.6818 116.347 39.8969 116.575 40.1255 116.785C40.3406 116.995 40.5692 117.153 40.7843 117.293C40.9994 117.433 41.2145 117.555 41.4162 117.626C42.2228 117.923 42.8009 117.871 42.8009 117.871C42.8009 117.871 42.895 116.977 42.8009 115.751C42.7472 115.138 42.6665 114.437 42.4917 113.719C42.4514 113.544 42.3976 113.351 42.3438 113.176C42.29 112.984 42.2363 112.808 42.1825 112.616C42.0615 112.23 41.927 111.863 41.7523 111.512Z" fill="#DBDBDB"/>
<path d="M30.3112 113.632C30.2574 113.562 30.1902 113.491 30.096 113.386C29.9078 113.176 29.6255 112.878 29.249 112.616C29.0608 112.475 28.8591 112.335 28.6171 112.213C28.3886 112.09 28.1197 111.985 27.8643 111.862C27.3265 111.652 26.6811 111.53 25.9417 111.547C25.5653 111.565 25.1888 111.582 24.7855 111.635C24.3821 111.687 23.9654 111.757 23.5486 111.845C23.1318 111.932 22.7016 112.038 22.2982 112.143C21.8949 112.248 21.4916 112.353 21.1151 112.458C20.3622 112.668 19.69 112.861 19.2195 113.018C18.7355 113.176 18.4531 113.264 18.4531 113.264C18.4531 113.264 18.6951 113.491 19.1253 113.824C19.327 113.999 19.5825 114.192 19.8782 114.402C20.0127 114.507 20.174 114.63 20.3354 114.735C20.4967 114.84 20.6715 114.945 20.8462 115.068C21.1958 115.278 21.5722 115.506 21.9621 115.699C22.1638 115.804 22.352 115.891 22.5537 115.996C22.6478 116.049 22.7554 116.101 22.8495 116.136C22.957 116.172 23.0511 116.207 23.1587 116.259C23.9922 116.557 24.8258 116.75 25.5921 116.75C27.1517 116.697 28.3483 115.926 29.1684 115.191C29.5717 114.823 29.8944 114.455 30.096 114.175C30.3112 113.894 30.4187 113.719 30.4187 113.719C30.4187 113.719 30.3515 113.684 30.3112 113.632Z" fill="#DBDBDB"/>
<path d="M28.1617 107.711C28.3499 108.534 28.6591 109.217 28.9953 109.778C29.1566 110.058 29.3448 110.286 29.5196 110.479C29.7078 110.671 29.8826 110.846 30.0574 110.987C30.4069 111.267 30.7296 111.46 30.9581 111.565C31.0657 111.617 31.1733 111.652 31.2405 111.67C31.3077 111.687 31.348 111.705 31.348 111.705C31.348 111.705 31.4153 111.495 31.5094 111.144C31.6035 110.794 31.711 110.286 31.7917 109.655C31.9665 108.429 32.0471 106.8 31.6841 105.224C31.5094 104.418 31.2136 103.63 30.8775 102.911C30.5548 102.176 30.1784 101.475 29.8288 100.897C29.654 100.617 29.4927 100.319 29.3448 100.091C29.1969 99.8459 29.0625 99.6357 28.9415 99.4605C28.7129 99.1102 28.5516 98.9175 28.5516 98.9175C28.5516 98.9175 28.4709 99.2503 28.3768 99.7933C28.2693 100.336 28.1483 101.125 28.0541 102C28.0004 102.456 27.96 102.929 27.9331 103.419C27.9063 103.892 27.9062 104.383 27.9062 104.891C27.9062 105.381 27.9331 105.872 27.9735 106.362C27.9869 106.835 28.0541 107.308 28.1617 107.711Z" fill="#DBDBDB"/>
<path d="M19.6235 102.543C19.4891 102.28 19.2874 101.895 18.9782 101.51C18.6824 101.107 18.2925 100.704 17.8085 100.318C17.338 99.9331 16.7599 99.5827 16.0339 99.3375C15.7919 99.2499 15.5364 99.1799 15.281 99.1273C15.0255 99.0572 14.7566 99.0047 14.4877 98.9521C13.1433 98.6894 11.6106 98.5843 10.4544 98.4967C9.28473 98.4091 8.45117 98.3916 8.45117 98.3916C8.45117 98.3916 8.73351 98.8646 9.21751 99.5477C9.68806 100.248 10.4141 101.107 11.2207 101.93C11.3417 102.053 11.4762 102.175 11.5972 102.298C11.6644 102.368 11.7316 102.42 11.7988 102.491C11.8661 102.543 11.9333 102.596 12.0005 102.666C12.2694 102.893 12.5517 103.104 12.8341 103.314C13.1164 103.507 13.3987 103.699 13.6811 103.839C13.9634 103.997 14.2457 104.137 14.5281 104.225C16.0339 104.715 17.3514 104.417 18.2925 103.979C19.2471 103.542 19.8252 102.999 19.8252 102.999C19.8252 102.999 19.758 102.823 19.6235 102.543Z" fill="#DBDBDB"/>
<path d="M20.12 100.266C20.3889 100.669 20.6578 100.967 20.8595 101.142C21.0611 101.317 21.1956 101.405 21.1956 101.405C21.1956 101.405 21.6527 100.704 22.0829 99.6005C22.5266 98.4794 22.9703 96.9379 22.9568 95.2913C22.9568 94.6782 22.9165 94.0476 22.8224 93.4521C22.782 93.1543 22.7148 92.8565 22.6476 92.5587C22.5804 92.2784 22.5266 91.9631 22.4594 91.6829C22.3384 91.1924 22.2174 90.7194 22.0829 90.299C22.0426 90.1939 22.0157 90.0888 21.9888 89.9837C21.9485 89.8786 21.935 89.791 21.8947 89.6859C21.8409 89.4933 21.7871 89.3181 21.7334 89.1604C21.5182 88.5123 21.3569 88.127 21.3569 88.127C21.3569 88.127 20.9401 88.9327 20.4561 90.1764C20.3351 90.4917 20.2141 90.8245 20.0797 91.1749C20.0125 91.35 19.9587 91.5427 19.8915 91.7179C19.8242 91.8931 19.7839 92.0858 19.7167 92.2784C19.5016 93.0317 19.3134 93.855 19.1789 94.6607C19.1251 94.976 19.0848 95.2738 19.0579 95.5716C19.031 95.8694 19.0176 96.1672 19.0176 96.4474C19.0176 97.3233 19.152 98.0765 19.3537 98.7246C19.5688 99.3552 19.8511 99.8632 20.12 100.266Z" fill="#DBDBDB"/>
<path d="M9.56656 89.406C9.86234 89.4236 10.1312 89.4236 10.3867 89.3885C11.395 89.3009 12.0672 88.9856 12.0672 88.9856C12.0672 88.9856 12.0538 88.8105 11.9731 88.4952C11.9328 88.3375 11.879 88.1624 11.8118 87.9522C11.758 87.7419 11.6773 87.5142 11.5832 87.269C11.3816 86.7785 11.1127 86.253 10.7228 85.71C10.6287 85.5874 10.5346 85.4648 10.427 85.3071C10.3195 85.167 10.2119 85.0444 10.0909 84.9042C9.8489 84.6415 9.56656 84.3787 9.25734 84.1335C8.93467 83.9058 8.58512 83.678 8.20867 83.4503C7.85912 83.2226 7.46923 83.0124 7.09278 82.8022C6.32645 82.3818 5.50633 82.014 4.76689 81.6811C4.04088 81.3483 3.40899 81.068 2.93844 80.8754C2.46788 80.6827 2.18555 80.5601 2.18555 80.5601C2.18555 80.5601 2.2931 80.9104 2.49477 81.4884C2.60233 81.7687 2.72333 82.1191 2.87122 82.4869C3.03255 82.8548 3.20733 83.2576 3.40899 83.678C3.61066 84.0985 3.83922 84.5364 4.06777 84.9743C4.12155 85.0794 4.18877 85.1845 4.256 85.2896C4.32322 85.3947 4.377 85.4998 4.45766 85.6049C4.59211 85.8151 4.72655 86.0253 4.87444 86.218C5.15678 86.6209 5.45255 87.0062 5.76178 87.3566C5.90967 87.5317 6.071 87.7069 6.23233 87.8471C6.39367 87.9872 6.555 88.1273 6.72978 88.2675C7.38856 88.7754 8.06078 89.0557 8.67923 89.2134C8.98845 89.336 9.28423 89.3885 9.56656 89.406Z" fill="#DBDBDB"/>
<path d="M12.5796 84.7285C12.6468 85.4117 12.7947 85.9898 12.9561 86.4802C13.0367 86.7255 13.1308 86.9357 13.2115 87.1108C13.2922 87.3035 13.3997 87.4437 13.467 87.5663C13.6148 87.8115 13.7358 87.9341 13.7358 87.9341C13.7358 87.9341 14.3274 87.4261 14.9862 86.5153C15.1475 86.2875 15.3223 86.0423 15.4836 85.762C15.6584 85.4818 15.8332 85.184 15.9945 84.8512C16.3172 84.203 16.5995 83.4849 16.7877 82.6966C16.8415 82.5039 16.8684 82.2937 16.9087 82.0835C16.9491 81.8733 16.976 81.6631 17.0029 81.4529C17.0566 81.0325 17.0835 80.6121 17.097 80.1917C17.1104 79.3509 17.1239 78.5276 17.0701 77.7919C17.0432 77.424 17.0163 77.0912 16.9894 76.7759C16.976 76.4606 16.9491 76.1979 16.9222 75.9701C16.8819 75.5147 16.8415 75.252 16.8415 75.252C16.8415 75.252 16.6399 75.4797 16.3172 75.8826C15.9945 76.2854 15.5509 76.846 15.0803 77.5291C14.6232 78.2123 14.1526 79.0006 13.7358 79.8414C13.5207 80.2618 13.3325 80.6997 13.1577 81.1376C12.9964 81.558 12.862 81.9959 12.7678 82.4163C12.6737 82.8367 12.62 83.2396 12.5796 83.625C12.5662 83.8177 12.5527 84.0104 12.5527 84.1855C12.5527 84.2731 12.5527 84.3607 12.5527 84.4483C12.5662 84.5534 12.5662 84.641 12.5796 84.7285Z" fill="#DBDBDB"/>
<path d="M3.69192 72.0294C3.97425 72.2921 4.27003 72.5023 4.55237 72.695C5.13048 73.0629 5.6817 73.2731 6.17915 73.4132C7.16059 73.676 7.87315 73.6059 7.87315 73.6059C7.87315 73.6059 7.95382 72.8527 7.7656 71.7842C7.72526 71.5214 7.6446 71.2411 7.57737 70.9258C7.51015 70.628 7.41604 70.3127 7.28159 69.9799C7.16059 69.6646 7.0127 69.3143 6.82448 68.9815C6.73037 68.8063 6.63626 68.6486 6.5287 68.4735C6.47493 68.3859 6.42115 68.2983 6.35393 68.2107C6.30015 68.1231 6.24637 68.0356 6.17915 67.948C5.21114 66.5817 3.65159 65.1978 2.41469 64.0592C1.7828 63.4987 1.21814 63.0082 0.814802 62.6579C0.398023 62.3426 0.142578 62.1499 0.142578 62.1499C0.142578 62.1499 0.182912 62.5353 0.263578 63.1484C0.344245 63.7614 0.465245 64.6198 0.666913 65.5657C0.882024 66.5116 1.1778 67.5451 1.52736 68.526C1.60803 68.7713 1.71558 69.0165 1.82314 69.2442C1.93069 69.4719 2.03825 69.6996 2.1458 69.9274C2.37436 70.3653 2.61636 70.7682 2.87181 71.1185C3.1407 71.4688 3.39614 71.7842 3.69192 72.0294Z" fill="#DBDBDB"/>
<path d="M9.70129 73.1502C9.70129 73.1502 10.387 72.8524 11.2205 72.2043C11.6507 71.8715 12.1078 71.4511 12.5515 70.9431C12.7666 70.6803 12.9817 70.4176 13.1834 70.1023C13.3985 69.8045 13.6002 69.4717 13.775 69.1213C13.9497 68.771 14.1111 68.3856 14.2455 68.0003C14.38 67.6149 14.4741 67.212 14.5951 66.8091C14.8236 66.0034 14.9715 65.1976 15.0791 64.4794C15.2135 63.7612 15.2942 63.1306 15.348 62.6752C15.3883 62.2197 15.4017 61.9395 15.4017 61.9395C15.4017 61.9395 15.1597 62.0971 14.7699 62.3599C14.38 62.6401 13.8422 63.043 13.2372 63.5335C12.6456 64.0415 11.9868 64.6546 11.4222 65.3202C10.8441 65.9858 10.3197 66.7215 9.94329 67.4748C9.74162 67.8426 9.62062 68.2105 9.51307 68.5783C9.40551 68.9462 9.33829 69.2965 9.28451 69.6293C9.23073 69.9622 9.21729 70.295 9.20384 70.5928C9.1904 70.8905 9.23073 71.1883 9.25762 71.4336C9.40551 72.5021 9.70129 73.1502 9.70129 73.1502Z" fill="#DBDBDB"/>
<path d="M2.13178 49.0471C2.17212 49.45 2.23934 49.8529 2.30656 50.2558C2.45445 51.0441 2.61579 51.7973 2.89812 52.4454C3.26112 53.3212 3.69134 54.0044 4.1619 54.5474C4.63246 55.0904 5.10301 55.4933 5.56013 55.7911C6.46091 56.3867 7.16002 56.5619 7.16002 56.5619C7.16002 56.5619 7.2138 56.3867 7.28102 56.0714C7.3348 55.7561 7.42891 55.3182 7.46924 54.7751C7.50957 54.2321 7.49613 53.6015 7.38857 52.8833C7.29446 52.1827 7.11968 51.3944 6.78357 50.5711C6.67602 50.2908 6.54157 50.0106 6.40713 49.7303C6.3399 49.5902 6.27268 49.45 6.19202 49.2924C6.12479 49.1522 6.04413 48.9946 5.9769 48.8545C5.60046 48.1363 5.18368 47.4006 4.75346 46.7174C4.33668 46.0167 3.90646 45.3511 3.54345 44.7906C2.81745 43.652 2.26623 42.8462 2.26623 42.8462C2.26623 42.8462 2.18556 43.4242 2.09145 44.3351C2.03767 44.7906 2.02423 45.3336 2.01078 45.9292C1.99734 46.5247 1.99734 47.1553 2.02423 47.821C2.05112 48.2239 2.09145 48.6443 2.13178 49.0471Z" fill="#DBDBDB"/>
<path d="M13.8161 54.3374C13.9102 54.2323 13.9909 54.1272 14.0716 54.0221C14.1522 53.917 14.2464 53.7943 14.327 53.6892C14.5018 53.4615 14.6631 53.2163 14.811 52.9711C14.9589 52.7258 15.0934 52.4631 15.2278 52.2178C15.3622 51.9376 15.4967 51.6923 15.6177 51.4471C15.8328 51.0092 16.021 50.5712 16.1824 50.1684C16.263 49.9582 16.3437 49.7655 16.4109 49.5903C16.4781 49.3976 16.5454 49.24 16.6126 49.0823C16.8546 48.4517 16.9756 48.0488 16.9756 48.0488C16.9756 48.0488 16.2227 48.2065 15.1606 48.5743C14.9051 48.6619 14.6094 48.767 14.327 48.8896C14.0447 49.0123 13.7489 49.1524 13.4397 49.31C12.8347 49.6078 12.2297 49.9757 11.665 50.3961C11.2213 50.7114 10.8449 51.0792 10.5088 51.4471C9.9979 52.0251 9.62146 52.6558 9.37946 53.2864C9.1509 53.8994 9.0299 54.5125 8.97612 55.0205C8.92234 55.546 8.9089 55.9839 8.94923 56.2992C8.97612 56.6145 9.01645 56.7897 9.01645 56.7897C9.01645 56.7897 9.72901 56.7372 10.6701 56.4044C11.6247 56.054 12.8481 55.4409 13.8161 54.3374Z" fill="#DBDBDB"/>
<path d="M7.84505 36.9955C8.18116 37.6787 8.55761 38.2568 8.92061 38.6947C9.64661 39.5705 10.2785 39.9909 10.2785 39.9909C10.2785 39.9909 10.3726 39.8333 10.5071 39.5705C10.6415 39.2902 10.8028 38.8874 10.9642 38.3794C11.1255 37.8714 11.2599 37.2583 11.3272 36.5401C11.3541 36.1898 11.3541 35.8044 11.3541 35.4015C11.3541 34.9986 11.3272 34.5782 11.2599 34.1228C11.1927 33.6673 11.0986 33.1944 10.9911 32.7039C10.9373 32.4587 10.8701 32.2135 10.8028 31.9507C10.7356 31.7055 10.6818 31.4602 10.6146 31.1975C10.3457 30.199 10.0365 29.2006 9.74072 28.2897C9.59283 27.8342 9.44494 27.4138 9.32394 27.0285C9.20294 26.6431 9.08194 26.3103 8.98783 26.03C8.79961 25.452 8.67861 25.1191 8.67861 25.1191C8.67861 25.1191 8.53072 25.452 8.32905 26.03C8.20805 26.3103 8.10049 26.6606 7.99294 27.0635C7.87194 27.4664 7.75094 27.9043 7.62994 28.3598C7.57616 28.5875 7.50894 28.8327 7.45516 29.0779C7.40138 29.3232 7.3476 29.5684 7.30727 29.8487C7.2266 30.3742 7.14594 30.8997 7.09216 31.4427C7.03838 31.9857 6.99805 32.5112 6.99805 33.0192C6.99805 33.5447 7.03838 34.0527 7.1056 34.5257C7.25349 35.4891 7.50894 36.2949 7.84505 36.9955Z" fill="#DBDBDB"/>
<path d="M18.0236 39.5531C18.3059 39.3254 18.5882 39.0626 18.8571 38.7999C19.1126 38.5371 19.3546 38.2569 19.5966 37.9766C19.8251 37.6963 20.0671 37.4336 20.2688 37.1708C20.4705 36.9081 20.6587 36.6453 20.82 36.4176C20.9007 36.295 20.9814 36.1899 21.0486 36.0848C21.1158 35.9797 21.183 35.8921 21.2503 35.8045C21.4923 35.4542 21.6267 35.244 21.6267 35.244C21.6267 35.244 21.3578 35.2089 20.9007 35.1564C20.4436 35.1214 19.8117 35.0688 19.0991 35.1038C18.4 35.1389 17.5934 35.2265 16.8136 35.3841C16.6119 35.4367 16.4237 35.4717 16.222 35.5242C16.0338 35.5768 15.8456 35.6469 15.6708 35.7169C15.3078 35.8571 14.9582 36.0147 14.649 36.2074C14.3398 36.4001 14.0575 36.6103 13.802 36.838C13.5466 37.0657 13.3449 37.3285 13.1567 37.5737C12.7937 38.0817 12.5382 38.6247 12.3635 39.0977C12.1887 39.5706 12.1215 40.0085 12.0811 40.3063C12.0408 40.6216 12.0273 40.7968 12.0273 40.7968C12.0273 40.7968 12.7265 41.007 13.7079 41.007C14.2053 41.007 14.77 40.972 15.3616 40.8318C15.9666 40.7092 16.585 40.4815 17.19 40.1312C17.4589 40.0085 17.7412 39.7983 18.0236 39.5531Z" fill="#DBDBDB"/>
<path d="M14.9043 22.0712C15.0791 22.842 15.3211 23.5076 15.5766 24.0682C16.074 25.1542 16.5983 25.7673 16.5983 25.7673C16.5983 25.7673 17.1092 25.3294 17.6201 24.4535C17.7546 24.2258 17.8756 23.9806 17.9966 23.7003C18.1176 23.4375 18.252 23.1222 18.3596 22.8069C18.5747 22.1413 18.736 21.353 18.8032 20.4247C18.8839 19.5138 18.8705 18.4803 18.8032 17.4118C18.736 16.3432 18.6688 15.2922 18.5747 14.3113C18.4806 13.3479 18.3865 12.4895 18.3192 11.8765C18.2386 11.2634 18.1982 10.8955 18.1982 10.8955C18.1982 10.8955 18.1445 10.9656 18.0503 11.0882C17.9697 11.2283 17.8352 11.421 17.6739 11.6662C17.3647 12.1567 16.9345 12.8574 16.5042 13.6632C16.0875 14.504 15.6707 15.4674 15.3346 16.4483C15.0119 17.4468 14.7833 18.4803 14.7027 19.4437C14.6892 19.689 14.6758 19.9167 14.6758 20.1444C14.6758 20.3721 14.6892 20.5998 14.7027 20.8275C14.7564 21.2655 14.8237 21.6859 14.9043 22.0712Z" fill="#DBDBDB"/>
<path d="M24.1682 27.957C24.3296 27.887 24.4775 27.8169 24.6388 27.7293C24.7195 27.6943 24.7867 27.6592 24.8674 27.6067C24.948 27.5716 25.0287 27.5191 25.1094 27.4841C25.7412 27.1512 26.3059 26.7484 26.8034 26.3805C27.3143 26.0302 27.7445 25.6798 28.0403 25.4171C28.1881 25.2769 28.3091 25.1718 28.3898 25.1018C28.4705 25.0317 28.5243 24.9967 28.5243 24.9967C28.5243 24.9967 28.457 24.9616 28.336 24.9091C28.215 24.8565 28.0403 24.769 27.8386 24.6814C27.4218 24.5062 26.8168 24.261 26.1177 24.0508C25.7681 23.9457 25.4051 23.8406 25.0152 23.753C24.827 23.718 24.6254 23.6654 24.4371 23.6304C24.2489 23.5953 24.0472 23.5778 23.859 23.5603C23.0792 23.4727 22.286 23.4727 21.5869 23.6304C20.9012 23.788 20.3366 24.1033 19.866 24.4537C19.624 24.6288 19.4223 24.8215 19.2341 25.0317C19.0593 25.2419 18.9115 25.4521 18.777 25.6623C18.2527 26.4856 18.0645 27.1863 18.0645 27.1863C18.0645 27.1863 18.6963 27.6242 19.6509 27.9745C20.1215 28.1497 20.6861 28.3074 21.2911 28.3774C21.8961 28.4475 22.5146 28.43 23.1868 28.3074C23.5229 28.2023 23.859 28.0972 24.1682 27.957Z" fill="#DBDBDB"/>
<path d="M25.9971 13.1726C26.1181 13.523 26.2122 13.7157 26.2122 13.7157C26.2122 13.7157 26.2526 13.6982 26.3198 13.6631C26.387 13.6281 26.4811 13.5755 26.5887 13.5055C26.8172 13.3653 27.1399 13.1376 27.476 12.8048C28.1482 12.1216 28.9818 11.1057 29.5061 9.35398C29.6809 8.77592 29.8557 8.14532 29.9901 7.47968C30.1649 6.63887 30.3128 5.74552 30.4338 4.88719C30.5683 4.04638 30.6893 3.22309 30.7699 2.48739C30.9581 1.05101 31.0657 0 31.0657 0C31.0657 0 30.6624 0.315303 30.0708 0.858324C29.775 1.12108 29.4389 1.4539 29.0625 1.82175C28.6995 2.20712 28.3365 2.64504 27.96 3.11799C27.7315 3.39826 27.5164 3.69605 27.3012 4.01135C27.2475 4.08142 27.1937 4.169 27.1399 4.23907C27.0861 4.30914 27.0458 4.39672 26.992 4.4843C26.8979 4.64196 26.8038 4.81712 26.6962 4.97478C26.3198 5.64041 26.0106 6.32357 25.7955 7.00673C25.6476 7.44465 25.5535 7.9176 25.4997 8.33801C25.4459 8.75841 25.4056 9.17881 25.4056 9.5817C25.3921 10.3875 25.4862 11.1057 25.6072 11.7188C25.7282 12.3318 25.8761 12.8223 25.9971 13.1726Z" fill="#DBDBDB"/>
<path d="M34.9108 18.1651C35.3141 18.06 35.6906 17.9374 36.0401 17.8147C36.3897 17.7096 36.7124 17.6045 36.9813 17.4994C37.5056 17.2892 37.8417 17.1316 37.8417 17.1316C37.8417 17.1316 37.2367 16.536 36.309 15.8178C35.8519 15.45 35.3007 15.0646 34.7091 14.6967C34.131 14.3464 33.5126 14.0311 32.8807 13.7859C32.4101 13.5932 31.9396 13.453 31.4825 13.383C30.1111 13.2253 29.0221 13.7333 28.3365 14.3639C27.9869 14.6617 27.7315 14.977 27.5701 15.1872C27.4895 15.2923 27.4222 15.3974 27.3819 15.4675C27.3416 15.5376 27.3281 15.5726 27.3281 15.5726C27.3281 15.5726 27.4491 15.7302 27.6777 15.9755C27.9062 16.2207 28.2423 16.536 28.6726 16.8688C29.0894 17.2016 29.6002 17.552 30.1515 17.8323C30.4338 17.9724 30.7296 18.095 31.0388 18.1826C31.348 18.2877 31.6572 18.3578 31.9934 18.4103C32.9614 18.568 33.9697 18.3753 34.9108 18.1651Z" fill="#DBDBDB"/>
<path d="M49.3101 120.516C49.0412 120.481 48.7186 120.428 48.3421 120.358C48.1539 120.323 47.9522 120.306 47.7506 120.253C47.5489 120.201 47.3204 120.148 47.1052 120.095C46.6481 119.99 46.1641 119.885 45.6398 119.763C45.1289 119.605 44.5777 119.447 44.013 119.29C43.7307 119.202 43.4349 119.132 43.1526 119.027C42.8702 118.922 42.5745 118.817 42.2787 118.712C41.7006 118.501 41.0956 118.309 40.5174 118.046C38.1647 117.135 35.906 115.856 34.2523 114.84C33.849 114.578 33.4591 114.332 33.1364 114.122C32.9617 114.017 32.8138 113.912 32.6659 113.824C32.518 113.737 32.397 113.632 32.276 113.544C31.8054 113.211 31.55 113.019 31.55 113.019C31.55 113.019 31.2811 112.826 30.8105 112.493C30.3534 112.143 29.7081 111.6 28.9283 110.987C27.4091 109.673 25.4059 107.851 23.5909 105.767C21.7624 103.7 20.0818 101.423 18.8987 99.6533C18.7374 99.4431 18.6164 99.2154 18.482 99.0052C18.3475 98.795 18.2265 98.6023 18.119 98.4096C17.8904 98.0418 17.6887 97.7265 17.514 97.4462C17.3392 97.1835 17.2316 96.9557 17.151 96.8156C17.0703 96.658 17.0165 96.5879 17.0165 96.5879C17.0165 96.5879 16.8417 96.2726 16.5325 95.7296C16.3846 95.4493 16.183 95.134 15.9813 94.7311C15.7796 94.3282 15.5511 93.8903 15.2956 93.3998C15.1746 93.1546 15.0402 92.9094 14.9057 92.6466C14.7713 92.3839 14.6503 92.1036 14.5158 91.8058C14.2469 91.2277 13.9781 90.6147 13.6823 90.0016C13.4268 89.3535 13.1445 88.6878 12.8756 88.0222C12.8084 87.847 12.7412 87.6894 12.6605 87.5142C12.5933 87.339 12.5395 87.1638 12.4723 86.9887C12.3513 86.6383 12.2168 86.288 12.0958 85.9377C11.1009 83.1175 10.2674 80.1922 9.79682 77.95C9.7296 77.6697 9.67582 77.407 9.6086 77.1442C9.55482 76.899 9.4876 76.6538 9.46071 76.426C9.38005 75.9706 9.29938 75.5677 9.2456 75.2349C9.1246 74.5693 9.05738 74.2014 9.05738 74.2014C9.05738 74.2014 9.04393 74.1138 9.0036 73.9387C8.97671 73.7635 8.93638 73.5007 8.89605 73.1679C8.84227 72.8351 8.78849 72.4322 8.73471 71.9768C8.66749 71.5213 8.57338 70.9958 8.53304 70.4178C8.47927 69.8397 8.41204 69.2266 8.34482 68.561C8.33138 68.4033 8.30449 68.2282 8.29104 68.0705C8.2776 67.8954 8.26415 67.7377 8.25071 67.545C8.23727 67.1947 8.21038 66.8443 8.18349 66.4765C8.06249 65.0401 8.06249 63.4811 8.0356 61.9396C8.07593 60.3982 8.07593 58.8567 8.18349 57.4028C8.19693 57.0524 8.22382 56.6846 8.25071 56.3342C8.26415 56.1591 8.26415 55.9839 8.29104 55.8263C8.30449 55.6511 8.33138 55.4934 8.34482 55.3183C8.41204 54.6702 8.47927 54.0395 8.53304 53.4615C8.58682 52.8834 8.66749 52.3754 8.73471 51.9025C8.80193 51.4471 8.85571 51.0442 8.89605 50.7114C8.94982 50.3785 8.97671 50.1158 9.0036 49.9406C9.04393 49.7654 9.05738 49.6603 9.05738 49.6603C9.05738 49.6603 9.1246 49.2925 9.2456 48.6269C9.29938 48.294 9.38005 47.8911 9.46071 47.4357C9.50105 47.208 9.55482 46.9628 9.6086 46.7175C9.66238 46.4548 9.7296 46.192 9.79682 45.9117C10.2674 43.6696 11.1009 40.7618 12.0958 37.9241C12.2303 37.5737 12.3513 37.2234 12.4723 36.8731C12.5395 36.6979 12.5933 36.5227 12.6605 36.3476C12.7277 36.1724 12.7949 36.0147 12.8756 35.8396C13.1579 35.1564 13.4268 34.4908 13.6823 33.8602C13.9646 33.2296 14.2469 32.6165 14.5158 32.0559C14.6503 31.7757 14.7713 31.4779 14.9057 31.2151C15.0402 30.9524 15.1746 30.7071 15.2956 30.4619C15.5376 29.9714 15.7796 29.5335 15.9813 29.1306C16.183 28.7277 16.3846 28.4124 16.5325 28.1322C16.8417 27.5716 17.0165 27.2739 17.0165 27.2739C17.0165 27.2739 17.0703 27.1863 17.151 27.0461C17.2316 26.906 17.3526 26.6783 17.514 26.4155C17.6753 26.1528 17.8904 25.82 18.119 25.4521C18.24 25.2594 18.361 25.0667 18.482 24.8565C18.6164 24.6463 18.7508 24.4361 18.8987 24.2084C20.0818 22.4392 21.7624 20.162 23.5909 18.095C25.4193 16.0105 27.4091 14.1888 28.9283 12.875C29.7081 12.2619 30.3534 11.7189 30.8105 11.3686C31.2811 11.0358 31.55 10.8431 31.55 10.8431C31.55 10.8431 31.8189 10.6504 32.276 10.3176C32.397 10.23 32.518 10.1424 32.6659 10.0373C32.8138 9.94972 32.9617 9.84462 33.1364 9.73952C33.244 9.66945 33.365 9.59939 33.486 9.5118C33.4994 9.5118 33.4994 9.5118 33.5129 9.5118C33.8087 9.54683 34.2254 9.56435 34.7229 9.52932C35.7178 9.47677 37.0084 9.1965 38.1378 8.39073C38.7293 8.00536 39.2806 7.46233 39.7646 6.88428C39.9931 6.58649 40.2486 6.30622 40.4771 6.00844C40.7057 5.72817 40.9073 5.43038 41.0956 5.15011C41.4586 4.58958 41.7947 4.09911 42.0098 3.73125C42.2249 3.3634 42.3459 3.13568 42.3459 3.13568C42.3459 3.13568 42.077 3.11816 41.6199 3.11816C41.1628 3.11816 40.5309 3.13568 39.8183 3.20575C39.6436 3.22327 39.4553 3.24078 39.2671 3.27582C39.0789 3.31085 38.8907 3.34588 38.7024 3.38092C38.326 3.45098 37.9361 3.55608 37.5597 3.66119C36.7933 3.90642 36.027 4.20421 35.4354 4.64213C34.8304 5.06253 34.3599 5.58804 34.0103 6.11354C33.6742 6.65656 33.4591 7.19958 33.2978 7.70757C33.1499 8.19804 33.0827 8.63596 33.0558 8.93375C33.0423 8.9863 33.0423 9.05636 33.0423 9.10891C33.002 9.14395 32.9482 9.16147 32.9079 9.1965C32.7465 9.3016 32.5852 9.4067 32.4373 9.49429C32.2894 9.59939 32.1684 9.68697 32.0474 9.77455C31.5769 10.1074 31.308 10.3176 31.308 10.3176C31.308 10.3176 31.0391 10.5103 30.5685 10.8431C30.1114 11.1934 29.4526 11.7364 28.6594 12.367C27.1268 13.6808 25.1101 15.5376 23.2682 17.6396C21.4263 19.7416 19.7323 22.0188 18.5223 23.823C18.361 24.0332 18.24 24.261 18.1055 24.4712C17.9711 24.6814 17.8501 24.8741 17.7291 25.0667C17.4871 25.4346 17.2854 25.7674 17.1241 26.0302C16.9493 26.2929 16.8417 26.5206 16.7476 26.6608C16.667 26.8009 16.6132 26.8885 16.6132 26.8885C16.6132 26.8885 16.4384 27.2038 16.1157 27.7643C15.9544 28.0446 15.7662 28.3774 15.5511 28.7803C15.3494 29.1832 15.1208 29.6386 14.8654 30.1291C14.7309 30.3743 14.6099 30.6371 14.4755 30.8998C14.3411 31.1626 14.2201 31.4604 14.0856 31.7406C13.8167 32.3187 13.5344 32.9318 13.2521 33.5624C12.9832 34.2105 12.7143 34.8761 12.4319 35.5768C12.3647 35.752 12.2975 35.9272 12.2168 36.0848C12.1496 36.26 12.0958 36.4351 12.0286 36.6103C11.8942 36.9607 11.7732 37.3285 11.6387 37.6788C10.6304 40.5341 9.78338 43.4769 9.31282 45.7366C9.2456 46.0168 9.19182 46.2796 9.1246 46.5423C9.07082 46.8051 9.0036 47.0328 8.96327 47.2781C8.8826 47.7335 8.80193 48.1539 8.74816 48.4867C8.62716 49.1524 8.54649 49.5377 8.54649 49.5377C8.54649 49.5377 8.53304 49.6428 8.49271 49.818C8.45238 49.9932 8.42549 50.2559 8.37171 50.6063C8.33138 50.9391 8.26415 51.3595 8.19693 51.8149C8.12971 52.2879 8.04904 52.8134 7.99527 53.3914C7.94149 53.9695 7.87426 54.6001 7.80704 55.2657C7.7936 55.4409 7.76671 55.5985 7.75326 55.7737C7.73982 55.9489 7.72638 56.124 7.71293 56.2992C7.69949 56.6496 7.6726 56.9999 7.64571 57.3853C7.52471 58.8391 7.52471 60.3982 7.48438 61.9571C7.52471 63.5161 7.52471 65.0751 7.64571 66.529C7.6726 66.8969 7.68604 67.2472 7.71293 67.5976C7.72638 67.7727 7.72638 67.9479 7.75326 68.1056C7.76671 68.2807 7.7936 68.4559 7.80704 68.6135C7.87426 69.2792 7.94149 69.9098 7.99527 70.4878C8.04904 71.0659 8.14315 71.5914 8.19693 72.0644C8.26415 72.5373 8.31793 72.9402 8.37171 73.273C8.42549 73.6058 8.45238 73.8686 8.49271 74.0613C8.5196 74.2364 8.54649 74.3415 8.54649 74.3415C8.54649 74.3415 8.61371 74.7269 8.74816 75.3925C8.80193 75.7254 8.8826 76.1283 8.96327 76.6012C9.01705 76.8289 9.08427 77.0742 9.13805 77.3369C9.19182 77.5997 9.25905 77.8624 9.32627 78.1427C9.79682 80.4024 10.6304 83.3452 11.6522 86.2004C11.7732 86.5508 11.9076 86.9186 12.0421 87.269C12.1093 87.4441 12.1631 87.6193 12.2303 87.7944C12.2975 87.9696 12.3782 88.1448 12.4454 88.3024C12.7277 88.9856 12.9966 89.6512 13.2655 90.3169C13.5478 90.9475 13.8302 91.5606 14.0991 92.1386C14.2335 92.4189 14.3545 92.7167 14.4889 92.9794C14.6234 93.2422 14.7578 93.5049 14.8788 93.7502C15.1343 94.2406 15.3628 94.6961 15.5645 95.099C15.7662 95.5019 15.9678 95.8347 16.1292 96.1149C16.4518 96.6755 16.6266 96.9908 16.6266 96.9908C16.6266 96.9908 16.6804 97.0784 16.7611 97.2185C16.8417 97.3586 16.9627 97.5864 17.1375 97.8491C17.2988 98.1119 17.514 98.4447 17.7425 98.8125C17.8635 99.0052 17.9845 99.1979 18.119 99.4081C18.2534 99.6183 18.3744 99.846 18.5357 100.056C19.7323 101.86 21.4263 104.138 23.2816 106.24C25.1235 108.342 27.1402 110.181 28.6729 111.512C29.4661 112.143 30.1114 112.686 30.582 113.036C31.0525 113.369 31.3214 113.562 31.3214 113.562C31.3214 113.562 31.5903 113.754 32.0609 114.105C32.1819 114.192 32.3163 114.28 32.4508 114.385C32.5987 114.473 32.76 114.578 32.9213 114.683C33.2574 114.893 33.6339 115.138 34.0507 115.418C35.7312 116.434 38.0033 117.713 40.383 118.642C40.9746 118.904 41.5661 119.097 42.1577 119.307C42.4535 119.412 42.7492 119.517 43.0316 119.623C43.3139 119.728 43.6097 119.798 43.892 119.885C44.4567 120.043 45.0079 120.201 45.5322 120.358C46.0566 120.481 46.554 120.586 47.0111 120.691C47.2397 120.744 47.4548 120.796 47.6699 120.831C47.885 120.884 48.0867 120.901 48.2749 120.936C48.6514 120.989 48.974 121.041 49.2564 121.094C49.7941 121.181 50.1034 121.234 50.1034 121.234L50.1571 120.638C50.1437 120.656 49.8479 120.603 49.3101 120.516Z" fill="#DBDBDB"/>
</svg>
