<svg width="53" height="132" viewBox="0 0 53 132" fill="none" xmlns="http://www.w3.org/2000/svg">
<path d="M11.2267 124.887C11.5203 124.887 11.8419 124.905 12.1775 124.96C12.2614 124.979 12.3453 124.997 12.4292 125.015C12.5131 125.034 12.597 125.052 12.6948 125.07C12.8626 125.107 13.0444 125.162 13.2262 125.236C13.9672 125.493 14.7642 125.915 15.5752 126.41C16.3582 126.869 17.1552 127.383 17.8683 127.861C18.5814 128.338 19.2106 128.797 19.658 129.109C20.1054 129.421 20.3711 129.623 20.3711 129.623C20.3711 129.623 20.3012 129.66 20.1614 129.733C20.0215 129.788 19.8258 129.898 19.5881 129.99C19.0847 130.174 18.3856 130.412 17.5886 130.633C17.3929 130.688 17.1831 130.743 16.9734 130.78C16.7637 130.816 16.54 130.853 16.3302 130.89C15.8968 130.945 15.4493 131 15.0019 131.018C14.121 131.073 13.2122 130.926 12.4432 130.651C10.9051 130.1 9.85644 128.852 9.21325 127.824C8.55609 126.778 8.29042 125.915 8.29042 125.915C8.29042 125.915 8.82175 125.474 9.68865 125.199C10.1081 125.034 10.6255 124.887 11.2267 124.887Z" fill="#DBDBDB"/>
<path d="M8.86592 116.865C9.22946 116.112 9.70486 115.451 10.1942 114.809C10.4319 114.497 10.6976 114.203 10.9493 113.928C11.0751 113.781 11.201 113.652 11.3268 113.542C11.4526 113.414 11.5645 113.285 11.6903 113.157C12.1657 112.679 12.5992 112.294 12.9068 112.037C13.2144 111.761 13.4102 111.596 13.4102 111.596C13.4102 111.596 13.4102 111.963 13.3962 112.551C13.3822 113.157 13.3402 113.964 13.2424 114.901C13.1445 115.818 12.9907 116.865 12.767 117.874C12.5293 118.847 12.2217 119.802 11.8441 120.591C11.7603 120.793 11.6484 120.977 11.5505 121.161C11.5086 121.252 11.4526 121.326 11.3967 121.418C11.3408 121.491 11.2988 121.564 11.2429 121.638C11.0192 121.932 10.7955 122.17 10.5578 122.39C10.3341 122.611 10.0964 122.776 9.87265 122.923C9.64893 123.07 9.42521 123.198 9.21548 123.272C8.37654 123.584 7.77531 123.529 7.77531 123.529C7.77531 123.529 7.67743 122.592 7.77531 121.307C7.83124 120.665 7.91513 119.931 8.0969 119.178C8.13885 118.994 8.19478 118.792 8.25071 118.609C8.30664 118.407 8.36256 118.223 8.41849 118.021C8.54433 117.617 8.68415 117.232 8.86592 116.865Z" fill="#DBDBDB"/>
<path d="M20.7653 119.086C20.8212 119.012 20.8911 118.939 20.989 118.829C21.1848 118.608 21.4784 118.296 21.8699 118.021C22.0657 117.874 22.2754 117.727 22.5271 117.599C22.7648 117.47 23.0444 117.36 23.3101 117.232C23.8694 117.011 24.5405 116.883 25.3095 116.901C25.701 116.92 26.0925 116.938 26.512 116.993C26.9315 117.048 27.3649 117.121 27.7984 117.213C28.2318 117.305 28.6793 117.415 29.0987 117.525C29.5182 117.635 29.9377 117.746 30.3292 117.856C31.1122 118.076 31.8113 118.278 32.3007 118.443C32.804 118.608 33.0977 118.7 33.0977 118.7C33.0977 118.7 32.846 118.939 32.3985 119.288C32.1888 119.471 31.9231 119.673 31.6155 119.893C31.4757 120.004 31.3079 120.132 31.1401 120.242C30.9724 120.352 30.7906 120.463 30.6088 120.591C30.2453 120.811 29.8538 121.05 29.4483 121.252C29.2386 121.362 29.0428 121.454 28.8331 121.564C28.7352 121.619 28.6233 121.674 28.5255 121.711C28.4136 121.748 28.3157 121.784 28.2039 121.839C27.337 122.151 26.4701 122.353 25.6731 122.353C24.0511 122.298 22.8067 121.491 21.9538 120.72C21.5343 120.334 21.1988 119.949 20.989 119.655C20.7653 119.361 20.6534 119.177 20.6534 119.177C20.6534 119.177 20.7234 119.141 20.7653 119.086Z" fill="#DBDBDB"/>
<path d="M23.0019 112.881C22.8062 113.744 22.4846 114.46 22.135 115.047C21.9672 115.341 21.7715 115.58 21.5897 115.782C21.394 115.983 21.2122 116.167 21.0304 116.314C20.6669 116.608 20.3313 116.81 20.0936 116.92C19.9817 116.975 19.8699 117.012 19.8 117.03C19.7301 117.048 19.6881 117.067 19.6881 117.067C19.6881 117.067 19.6182 116.846 19.5203 116.479C19.4225 116.112 19.3106 115.58 19.2267 114.919C19.0449 113.634 18.961 111.926 19.3386 110.274C19.5203 109.43 19.8279 108.604 20.1775 107.851C20.5131 107.08 20.9046 106.346 21.2681 105.74C21.4499 105.446 21.6177 105.134 21.7715 104.895C21.9253 104.638 22.0651 104.418 22.1909 104.235C22.4286 103.867 22.5964 103.666 22.5964 103.666C22.5964 103.666 22.6803 104.014 22.7782 104.583C22.8901 105.152 23.0159 105.979 23.1138 106.896C23.1697 107.374 23.2116 107.869 23.2396 108.383C23.2676 108.879 23.2676 109.393 23.2676 109.925C23.2676 110.439 23.2396 110.954 23.1977 111.468C23.1837 111.963 23.1138 112.459 23.0019 112.881Z" fill="#DBDBDB"/>
<path d="M31.8807 107.466C32.0206 107.19 32.2303 106.786 32.5519 106.382C32.8595 105.96 33.265 105.538 33.7684 105.134C34.2577 104.73 34.859 104.363 35.614 104.106C35.8657 104.014 36.1314 103.941 36.397 103.886C36.6627 103.812 36.9423 103.757 37.222 103.702C38.6202 103.427 40.2142 103.317 41.4166 103.225C42.6331 103.133 43.5 103.115 43.5 103.115C43.5 103.115 43.2064 103.61 42.703 104.326C42.2136 105.061 41.4586 105.96 40.6197 106.823C40.4938 106.951 40.354 107.08 40.2282 107.209C40.1582 107.282 40.0883 107.337 40.0184 107.41C39.9485 107.466 39.8786 107.521 39.8087 107.594C39.529 107.833 39.2354 108.053 38.9418 108.273C38.6482 108.475 38.3545 108.677 38.0609 108.824C37.7673 108.989 37.4736 109.136 37.18 109.228C35.614 109.742 34.2437 109.43 33.265 108.971C32.2722 108.512 31.671 107.943 31.671 107.943C31.671 107.943 31.7409 107.759 31.8807 107.466Z" fill="#DBDBDB"/>
<path d="M31.3652 105.079C31.0855 105.501 30.8059 105.814 30.5962 105.997C30.3864 106.181 30.2466 106.272 30.2466 106.272C30.2466 106.272 29.7712 105.538 29.3238 104.382C28.8624 103.207 28.4009 101.591 28.4149 99.8657C28.4149 99.2232 28.4569 98.5623 28.5547 97.9381C28.5967 97.6261 28.6666 97.314 28.7365 97.0019C28.8064 96.7082 28.8623 96.3777 28.9323 96.084C29.0581 95.57 29.1839 95.0743 29.3238 94.6338C29.3657 94.5236 29.3937 94.4135 29.4216 94.3033C29.4636 94.1932 29.4776 94.1014 29.5195 93.9912C29.5754 93.7893 29.6314 93.6057 29.6873 93.4405C29.911 92.7613 30.0788 92.3574 30.0788 92.3574C30.0788 92.3574 30.5123 93.2019 31.0156 94.5053C31.1415 94.8357 31.2673 95.1845 31.4071 95.5516C31.477 95.7352 31.533 95.9372 31.6029 96.1207C31.6728 96.3043 31.7147 96.5062 31.7846 96.7082C32.0084 97.4976 32.2041 98.3604 32.3439 99.2048C32.3999 99.5353 32.4418 99.8473 32.4698 100.159C32.4977 100.471 32.5117 100.784 32.5117 101.077C32.5117 101.995 32.3719 102.785 32.1622 103.464C31.9384 104.125 31.6448 104.657 31.3652 105.079Z" fill="#DBDBDB"/>
<path d="M42.3394 93.6974C42.0318 93.7157 41.7521 93.7157 41.4865 93.679C40.4378 93.5872 39.7387 93.2568 39.7387 93.2568C39.7387 93.2568 39.7527 93.0732 39.8365 92.7428C39.8785 92.5775 39.9344 92.394 40.0043 92.1737C40.0603 91.9534 40.1442 91.7147 40.242 91.4577C40.4518 90.9437 40.7314 90.393 41.1369 89.8239C41.2348 89.6954 41.3326 89.5669 41.4445 89.4017C41.5564 89.2548 41.6682 89.1263 41.7941 88.9794C42.0457 88.7041 42.3394 88.4287 42.661 88.1717C42.9965 87.9331 43.3601 87.6944 43.7516 87.4558C44.1151 87.2171 44.5206 86.9968 44.9121 86.7765C45.7091 86.3359 46.562 85.9504 47.331 85.6016C48.0861 85.2528 48.7432 84.9591 49.2326 84.7572C49.722 84.5553 50.0156 84.4268 50.0156 84.4268C50.0156 84.4268 49.9038 84.7939 49.694 85.3997C49.5822 85.6934 49.4563 86.0606 49.3025 86.4461C49.1347 86.8316 48.953 87.2538 48.7432 87.6944C48.5335 88.135 48.2958 88.5939 48.0581 89.0529C48.0022 89.163 47.9323 89.2732 47.8624 89.3833C47.7924 89.4935 47.7365 89.6036 47.6526 89.7137C47.5128 89.934 47.373 90.1543 47.2192 90.3563C46.9255 90.7785 46.6179 91.1824 46.2963 91.5495C46.1425 91.7331 45.9748 91.9167 45.807 92.0635C45.6392 92.2104 45.4714 92.3572 45.2896 92.5041C44.6045 93.0365 43.9054 93.3302 43.2622 93.4954C42.9406 93.6239 42.633 93.679 42.3394 93.6974Z" fill="#DBDBDB"/>
<path d="M39.2064 88.7957C39.1365 89.5117 38.9827 90.1175 38.8149 90.6315C38.731 90.8885 38.6331 91.1088 38.5492 91.2924C38.4654 91.4943 38.3535 91.6412 38.2836 91.7697C38.1298 92.0267 38.0039 92.1552 38.0039 92.1552C38.0039 92.1552 37.3887 91.6228 36.7036 90.6682C36.5358 90.4296 36.354 90.1726 36.1862 89.8788C36.0045 89.5851 35.8227 89.273 35.6549 88.9242C35.3193 88.245 35.0257 87.4923 34.83 86.6662C34.774 86.4643 34.7461 86.244 34.7041 86.0237C34.6622 85.8034 34.6342 85.5831 34.6062 85.3629C34.5503 84.9223 34.5224 84.4817 34.5084 84.0411C34.4944 83.1599 34.4804 82.2971 34.5363 81.5261C34.5643 81.1406 34.5923 80.7918 34.6202 80.4614C34.6342 80.1309 34.6622 79.8556 34.6901 79.6169C34.7321 79.1396 34.774 78.8643 34.774 78.8643C34.774 78.8643 34.9838 79.1029 35.3193 79.5251C35.6549 79.9474 36.1163 80.5348 36.6057 81.2507C37.0811 81.9667 37.5705 82.7928 38.0039 83.674C38.2277 84.1145 38.4234 84.5735 38.6052 85.0324C38.773 85.473 38.9128 85.9319 39.0107 86.3725C39.1085 86.8131 39.1645 87.2353 39.2064 87.6392C39.2204 87.8411 39.2344 88.0431 39.2344 88.2266C39.2344 88.3184 39.2344 88.4102 39.2344 88.502C39.2204 88.6122 39.2204 88.7039 39.2064 88.7957Z" fill="#DBDBDB"/>
<path d="M48.4493 75.4865C48.1557 75.7619 47.8481 75.9822 47.5544 76.1841C46.9532 76.5696 46.3799 76.7899 45.8626 76.9368C44.8419 77.2121 44.1008 77.1387 44.1008 77.1387C44.1008 77.1387 44.0169 76.3493 44.2127 75.2295C44.2546 74.9541 44.3385 74.6604 44.4084 74.33C44.4784 74.0179 44.5762 73.6875 44.716 73.3387C44.8419 73.0082 44.9957 72.6411 45.1914 72.2923C45.2893 72.1087 45.3872 71.9435 45.4991 71.7599C45.555 71.6681 45.6109 71.5763 45.6808 71.4845C45.7368 71.3928 45.7927 71.301 45.8626 71.2092C46.8693 69.7773 48.4913 68.327 49.7776 67.1338C50.4348 66.5464 51.022 66.0323 51.4415 65.6652C51.875 65.3347 52.1406 65.1328 52.1406 65.1328C52.1406 65.1328 52.0987 65.5367 52.0148 66.1792C51.9309 66.8217 51.8051 67.7212 51.5953 68.7126C51.3716 69.7039 51.064 70.787 50.7005 71.815C50.6166 72.072 50.5047 72.329 50.3928 72.5676C50.281 72.8063 50.1691 73.0449 50.0573 73.2836C49.8196 73.7425 49.5679 74.1648 49.3022 74.5319C49.0226 74.8991 48.7569 75.2295 48.4493 75.4865Z" fill="#DBDBDB"/>
<path d="M42.1986 76.6615C42.1986 76.6615 41.4855 76.3494 40.6186 75.6702C40.1712 75.3214 39.6958 74.8808 39.2344 74.3484C39.0107 74.0731 38.787 73.7977 38.5772 73.4673C38.3535 73.1552 38.1438 72.8064 37.962 72.4392C37.7802 72.0721 37.6125 71.6682 37.4726 71.2643C37.3328 70.8605 37.2349 70.4382 37.1091 70.016C36.8714 69.1716 36.7176 68.3271 36.6057 67.5745C36.4659 66.8218 36.382 66.1609 36.3261 65.6836C36.2841 65.2063 36.2702 64.9126 36.2702 64.9126C36.2702 64.9126 36.5218 65.0778 36.9273 65.3532C37.3328 65.6469 37.8921 66.0691 38.5213 66.5831C39.1365 67.1155 39.8216 67.758 40.4089 68.4556C41.0101 69.1532 41.5554 69.9242 41.9469 70.7136C42.1567 71.0991 42.2825 71.4846 42.3944 71.8701C42.5062 72.2556 42.5761 72.6228 42.6321 72.9716C42.688 73.3204 42.702 73.6692 42.716 73.9813C42.73 74.2933 42.688 74.6054 42.66 74.8624C42.5062 75.9822 42.1986 76.6615 42.1986 76.6615Z" fill="#DBDBDB"/>
<path d="M50.072 51.4014C50.0301 51.8237 49.9601 52.2459 49.8902 52.6681C49.7364 53.4942 49.5686 54.2836 49.275 54.9628C48.8975 55.8807 48.4501 56.5966 47.9607 57.1657C47.4713 57.7348 46.9819 58.157 46.5065 58.4691C45.5697 59.0933 44.8426 59.2769 44.8426 59.2769C44.8426 59.2769 44.7867 59.0933 44.7168 58.7628C44.6609 58.4324 44.563 57.9735 44.5211 57.4044C44.4791 56.8353 44.4931 56.1744 44.6049 55.4218C44.7028 54.6874 44.8846 53.8614 45.2341 52.9985C45.346 52.7048 45.4858 52.4111 45.6257 52.1174C45.6956 51.9705 45.7655 51.8237 45.8494 51.6584C45.9193 51.5116 46.0032 51.3464 46.0731 51.1995C46.4646 50.4468 46.898 49.6758 47.3455 48.9599C47.7789 48.2256 48.2263 47.528 48.6039 46.9405C49.3589 45.7473 49.9322 44.9028 49.9322 44.9028C49.9322 44.9028 50.0161 45.5086 50.114 46.4632C50.1699 46.9405 50.1839 47.5096 50.1978 48.1338C50.2118 48.7579 50.2118 49.4188 50.1839 50.1164C50.1559 50.5386 50.114 50.9792 50.072 51.4014Z" fill="#DBDBDB"/>
<path d="M37.9199 56.9454C37.822 56.8352 37.7381 56.7251 37.6542 56.6149C37.5703 56.5048 37.4725 56.3763 37.3886 56.2661C37.2068 56.0275 37.039 55.7705 36.8852 55.5135C36.7314 55.2565 36.5916 54.9811 36.4518 54.7241C36.3119 54.4304 36.1721 54.1734 36.0463 53.9164C35.8226 53.4574 35.6268 52.9985 35.459 52.5763C35.3751 52.356 35.2912 52.154 35.2213 51.9704C35.1514 51.7685 35.0815 51.6033 35.0116 51.4381C34.7599 50.7772 34.6341 50.355 34.6341 50.355C34.6341 50.355 35.4171 50.5202 36.5217 50.9057C36.7873 50.9975 37.0949 51.1076 37.3886 51.2361C37.6822 51.3646 37.9898 51.5115 38.3114 51.6767C38.9406 51.9888 39.5698 52.3743 40.1571 52.8149C40.6185 53.1453 41.01 53.5309 41.3595 53.9164C41.8909 54.5222 42.2824 55.183 42.534 55.8439C42.7717 56.4864 42.8976 57.1289 42.9535 57.6613C43.0094 58.212 43.0234 58.671 42.9815 59.0014C42.9535 59.3319 42.9116 59.5154 42.9116 59.5154C42.9116 59.5154 42.1705 59.4604 41.1917 59.1116C40.199 58.7444 38.9266 58.1019 37.9199 56.9454Z" fill="#DBDBDB"/>
<path d="M44.1289 38.7717C43.7793 39.4876 43.3878 40.0934 43.0103 40.5524C42.2553 41.4702 41.5981 41.9108 41.5981 41.9108C41.5981 41.9108 41.5002 41.7456 41.3604 41.4702C41.2206 41.1765 41.0528 40.7543 40.885 40.2219C40.7172 39.6895 40.5774 39.047 40.5075 38.2944C40.4795 37.9272 40.4795 37.5233 40.4795 37.1011C40.4795 36.6789 40.5075 36.2383 40.5774 35.761C40.6473 35.2837 40.7452 34.7881 40.857 34.274C40.913 34.017 40.9829 33.76 41.0528 33.4847C41.1227 33.2277 41.1786 32.9707 41.2485 32.6953C41.5282 31.6489 41.8498 30.6025 42.1574 29.6479C42.3112 29.1706 42.465 28.73 42.5908 28.3262C42.7167 27.9223 42.8425 27.5735 42.9404 27.2798C43.1361 26.674 43.262 26.3252 43.262 26.3252C43.262 26.3252 43.4158 26.674 43.6255 27.2798C43.7514 27.5735 43.8632 27.9407 43.9751 28.3629C44.1009 28.7851 44.2268 29.2441 44.3526 29.7214C44.4085 29.96 44.4784 30.217 44.5344 30.474C44.5903 30.731 44.6462 30.988 44.6882 31.2818C44.7721 31.8325 44.856 32.3832 44.9119 32.9523C44.9678 33.5214 45.0098 34.0721 45.0098 34.6045C45.0098 35.1552 44.9678 35.6876 44.8979 36.1832C44.7441 37.1929 44.4784 38.0374 44.1289 38.7717Z" fill="#DBDBDB"/>
<path d="M33.5452 41.4513C33.2515 41.2127 32.9579 40.9373 32.6783 40.6619C32.4126 40.3866 32.1609 40.0928 31.9092 39.7991C31.6715 39.5054 31.4199 39.23 31.2101 38.9547C31.0004 38.6793 30.8046 38.4039 30.6369 38.1653C30.553 38.0368 30.4691 37.9266 30.3992 37.8165C30.3292 37.7064 30.2593 37.6146 30.1894 37.5228C29.9377 37.1556 29.7979 36.9353 29.7979 36.9353C29.7979 36.9353 30.0776 36.8986 30.553 36.8435C31.0284 36.8068 31.6855 36.7518 32.4266 36.7885C33.1537 36.8252 33.9926 36.917 34.8036 37.0822C35.0133 37.1373 35.2091 37.174 35.4188 37.2291C35.6145 37.2841 35.8103 37.3576 35.9921 37.431C36.3696 37.5779 36.7331 37.7431 37.0547 37.945C37.3763 38.1469 37.6699 38.3672 37.9356 38.6059C38.2013 38.8445 38.411 39.1199 38.6067 39.3769C38.9843 39.9093 39.2499 40.4784 39.4317 40.974C39.6135 41.4697 39.6834 41.9286 39.7253 42.2407C39.7673 42.5711 39.7812 42.7547 39.7812 42.7547C39.7812 42.7547 39.0542 42.975 38.0335 42.975C37.5161 42.975 36.9289 42.9383 36.3137 42.7914C35.6845 42.6629 35.0413 42.4243 34.4121 42.0571C34.1324 41.9286 33.8388 41.7083 33.5452 41.4513Z" fill="#DBDBDB"/>
<path d="M36.7877 23.1306C36.6059 23.9384 36.3542 24.6359 36.0886 25.2234C35.5712 26.3616 35.0259 27.0041 35.0259 27.0041C35.0259 27.0041 34.4946 26.5451 33.9633 25.6273C33.8235 25.3886 33.6976 25.1316 33.5718 24.8379C33.4459 24.5625 33.3061 24.2321 33.1943 23.9016C32.9705 23.2041 32.8028 22.378 32.7328 21.405C32.6489 20.4504 32.6629 19.3673 32.7328 18.2475C32.8028 17.1277 32.8727 16.0262 32.9705 14.9982C33.0684 13.9885 33.1663 13.089 33.2362 12.4465C33.3201 11.804 33.362 11.4185 33.362 11.4185C33.362 11.4185 33.418 11.4919 33.5158 11.6204C33.5997 11.7673 33.7396 11.9692 33.9073 12.2262C34.2289 12.7402 34.6764 13.4745 35.1238 14.319C35.5573 15.2001 35.9907 16.2098 36.3403 17.2378C36.6758 18.2842 36.9135 19.3673 36.9974 20.377C37.0114 20.634 37.0254 20.8726 37.0254 21.1113C37.0254 21.3499 37.0114 21.5886 36.9974 21.8272C36.9415 22.2862 36.8716 22.7268 36.7877 23.1306Z" fill="#DBDBDB"/>
<path d="M27.154 29.2988C26.9862 29.2254 26.8324 29.152 26.6646 29.0602C26.5807 29.0235 26.5108 28.9867 26.4269 28.9317C26.343 28.8949 26.2591 28.8399 26.1753 28.8032C25.5181 28.4544 24.9308 28.0321 24.4135 27.6466C23.8822 27.2795 23.4347 26.9123 23.1271 26.637C22.9733 26.4901 22.8475 26.38 22.7636 26.3065C22.6797 26.2331 22.6238 26.1964 22.6238 26.1964C22.6238 26.1964 22.6937 26.1597 22.8195 26.1046C22.9454 26.0495 23.1271 25.9577 23.3369 25.8659C23.7703 25.6824 24.3995 25.4254 25.1266 25.2051C25.4901 25.0949 25.8676 24.9848 26.2731 24.893C26.4689 24.8563 26.6786 24.8012 26.8744 24.7645C27.0701 24.7278 27.2799 24.7094 27.4756 24.6911C28.2866 24.5993 29.1115 24.5993 29.8386 24.7645C30.5517 24.9297 31.139 25.2601 31.6283 25.6273C31.88 25.8109 32.0897 26.0128 32.2855 26.2331C32.4673 26.4534 32.6211 26.6737 32.7609 26.894C33.3062 27.7568 33.502 28.4911 33.502 28.4911C33.502 28.4911 32.8448 28.95 31.852 29.3172C31.3627 29.5008 30.7754 29.666 30.1462 29.7394C29.517 29.8128 28.8738 29.7945 28.1747 29.666C27.8252 29.5558 27.4756 29.4457 27.154 29.2988Z" fill="#DBDBDB"/>
<path d="M25.2526 13.8049C25.1268 14.1721 25.0289 14.374 25.0289 14.374C25.0289 14.374 24.9869 14.3557 24.917 14.3189C24.8471 14.2822 24.7492 14.2272 24.6374 14.1537C24.3997 14.0069 24.0641 13.7682 23.7145 13.4194C23.0154 12.7035 22.1485 11.6387 21.6032 9.80297C21.4215 9.19717 21.2397 8.53629 21.0999 7.83871C20.9181 6.95754 20.7643 6.0213 20.6384 5.12178C20.4986 4.24061 20.3728 3.3778 20.2889 2.60678C20.0931 1.10146 19.9813 0 19.9813 0C19.9813 0 20.4007 0.330437 21.016 0.899524C21.3236 1.17489 21.6731 1.52368 22.0646 1.90919C22.4422 2.31306 22.8197 2.772 23.2112 3.26766C23.4489 3.56138 23.6726 3.87346 23.8963 4.2039C23.9522 4.27733 24.0082 4.36911 24.0641 4.44254C24.12 4.51598 24.162 4.60776 24.2179 4.69955C24.3158 4.86477 24.4137 5.04835 24.5255 5.21356C24.917 5.91115 25.2386 6.6271 25.4623 7.34305C25.6161 7.80199 25.714 8.29765 25.7699 8.73823C25.8259 9.17881 25.8678 9.61939 25.8678 10.0416C25.8818 10.8861 25.7839 11.6387 25.6581 12.2812C25.5322 12.9238 25.3784 13.4378 25.2526 13.8049Z" fill="#DBDBDB"/>
<path d="M15.9812 19.0371C15.5617 18.927 15.1702 18.7985 14.8067 18.67C14.4431 18.5598 14.1076 18.4497 13.8279 18.3395C13.2826 18.1192 12.9331 17.954 12.9331 17.954C12.9331 17.954 13.5623 17.3299 14.527 16.5772C15.0024 16.1917 15.5757 15.7878 16.1909 15.4023C16.7922 15.0352 17.4353 14.7047 18.0925 14.4477C18.5819 14.2458 19.0713 14.0989 19.5467 14.0255C20.9729 13.8603 22.1054 14.3926 22.8185 15.0535C23.1821 15.3656 23.4477 15.696 23.6155 15.9163C23.6994 16.0265 23.7693 16.1366 23.8113 16.21C23.8532 16.2835 23.8672 16.3202 23.8672 16.3202C23.8672 16.3202 23.7413 16.4854 23.5036 16.7424C23.266 16.9994 22.9164 17.3299 22.469 17.6787C22.0355 18.0274 21.5042 18.3946 20.9309 18.6883C20.6373 18.8352 20.3297 18.9637 20.0081 19.0555C19.6865 19.1656 19.3649 19.2391 19.0153 19.2941C18.0086 19.4593 16.96 19.2574 15.9812 19.0371Z" fill="#DBDBDB"/>
<path d="M1.00706 126.3C1.28671 126.264 1.62229 126.209 2.01379 126.135C2.20954 126.098 2.41927 126.08 2.62901 126.025C2.83874 125.97 3.07644 125.915 3.30016 125.86C3.77555 125.75 4.27891 125.639 4.82422 125.511C5.35555 125.346 5.92882 125.181 6.51607 125.015C6.8097 124.924 7.11731 124.85 7.41094 124.74C7.70457 124.63 8.01217 124.52 8.31978 124.41C8.92102 124.189 9.55022 123.987 10.1515 123.712C12.5984 122.757 14.9474 121.417 16.6672 120.352C17.0867 120.077 17.4921 119.82 17.8277 119.6C18.0095 119.49 18.1633 119.38 18.3171 119.288C18.4709 119.196 18.5967 119.086 18.7226 118.994C19.212 118.645 19.4776 118.443 19.4776 118.443C19.4776 118.443 19.7573 118.241 20.2467 117.893C20.722 117.525 21.3932 116.956 22.2042 116.314C23.7842 114.937 25.8675 113.028 27.7551 110.843C29.6567 108.677 31.4045 106.291 32.6349 104.436C32.8027 104.216 32.9286 103.978 33.0684 103.757C33.2082 103.537 33.334 103.335 33.4459 103.133C33.6836 102.748 33.8933 102.417 34.0751 102.123C34.2569 101.848 34.3687 101.609 34.4526 101.463C34.5365 101.297 34.5924 101.224 34.5924 101.224C34.5924 101.224 34.7742 100.893 35.0958 100.324C35.2496 100.031 35.4593 99.7002 35.6691 99.2779C35.8788 98.8557 36.1165 98.3968 36.3822 97.8828C36.508 97.6258 36.6478 97.3688 36.7877 97.0934C36.9275 96.818 37.0533 96.5243 37.1931 96.2122C37.4728 95.6064 37.7524 94.9639 38.06 94.3214C38.3257 93.6422 38.6193 92.9446 38.899 92.247C38.9689 92.0634 39.0388 91.8982 39.1227 91.7146C39.1926 91.531 39.2485 91.3475 39.3184 91.1639C39.4443 90.7967 39.5841 90.4296 39.7099 90.0624C40.7446 87.1068 41.6115 84.0411 42.1009 81.6913C42.1708 81.3976 42.2268 81.1223 42.2967 80.8469C42.3526 80.5899 42.4225 80.3329 42.4505 80.0942C42.5344 79.6169 42.6183 79.1947 42.6742 78.8459C42.8 78.1483 42.8699 77.7628 42.8699 77.7628C42.8699 77.7628 42.8839 77.671 42.9259 77.4874C42.9538 77.3039 42.9958 77.0285 43.0377 76.6797C43.0937 76.3309 43.1496 75.9087 43.2055 75.4314C43.2754 74.9541 43.3733 74.4034 43.4152 73.7976C43.4712 73.1918 43.5411 72.5492 43.611 71.8517C43.625 71.6864 43.6529 71.5029 43.6669 71.3376C43.6809 71.1541 43.6949 70.9889 43.7089 70.7869C43.7229 70.4198 43.7508 70.0526 43.7788 69.6671C43.9046 68.1618 43.9046 66.528 43.9326 64.9125C43.8906 63.297 43.8906 61.6815 43.7788 60.1578C43.7648 59.7907 43.7368 59.4052 43.7089 59.038C43.6949 58.8545 43.6949 58.6709 43.6669 58.5057C43.6529 58.3221 43.625 58.1569 43.611 57.9733C43.5411 57.2941 43.4712 56.6332 43.4152 56.0274C43.3593 55.4216 43.2754 54.8892 43.2055 54.3936C43.1356 53.9163 43.0797 53.494 43.0377 53.1452C42.9818 52.7964 42.9538 52.5211 42.9259 52.3375C42.8839 52.1539 42.8699 52.0438 42.8699 52.0438C42.8699 52.0438 42.8 51.6583 42.6742 50.9607C42.6183 50.6119 42.5344 50.1897 42.4505 49.7124C42.4085 49.4737 42.3526 49.2167 42.2967 48.9597C42.2407 48.6843 42.1708 48.409 42.1009 48.1152C41.6115 45.7655 40.7446 42.7181 39.7099 39.7442C39.5701 39.377 39.4443 39.0099 39.3184 38.6427C39.2485 38.4591 39.1926 38.2756 39.1227 38.092C39.0528 37.9084 38.9829 37.7432 38.899 37.5596C38.6053 36.8437 38.3257 36.1461 38.06 35.4852C37.7664 34.8243 37.4728 34.1818 37.1931 33.5944C37.0533 33.3006 36.9275 32.9886 36.7877 32.7132C36.6478 32.4378 36.508 32.1808 36.3822 31.9238C36.1305 31.4098 35.8788 30.9509 35.6691 30.5286C35.4593 30.1064 35.2496 29.776 35.0958 29.4823C34.7742 28.8948 34.5924 28.5827 34.5924 28.5827C34.5924 28.5827 34.5365 28.491 34.4526 28.3441C34.3687 28.1972 34.2429 27.9586 34.0751 27.6832C33.9073 27.4079 33.6836 27.0591 33.4459 26.6735C33.3201 26.4716 33.1942 26.2697 33.0684 26.0494C32.9286 25.8291 32.7887 25.6088 32.6349 25.3702C31.4045 23.516 29.6567 21.1295 27.7551 18.9633C25.8535 16.7788 23.7842 14.8696 22.2042 13.4928C21.3932 12.8503 20.722 12.2812 20.2467 11.914C19.7573 11.5652 19.4776 11.3633 19.4776 11.3633C19.4776 11.3633 19.198 11.1614 18.7226 10.8126C18.5967 10.7208 18.4709 10.629 18.3171 10.5188C18.1633 10.4271 18.0095 10.3169 17.8277 10.2068C17.7159 10.1333 17.59 10.0599 17.4642 9.96811C17.4502 9.96811 17.4502 9.96811 17.4362 9.96811C17.1286 10.0048 16.6952 10.0232 16.1778 9.98647C15.1431 9.9314 13.8008 9.63767 12.6263 8.79322C12.0111 8.38935 11.4378 7.82027 10.9345 7.21447C10.6968 6.90239 10.4311 6.60867 10.1934 6.29659C9.95571 6.00286 9.74598 5.69078 9.55022 5.39706C9.1727 4.80962 8.82315 4.29561 8.59943 3.9101C8.37571 3.52459 8.24987 3.28594 8.24987 3.28594C8.24987 3.28594 8.52952 3.26758 9.00492 3.26758C9.48031 3.26758 10.1375 3.28594 10.8785 3.35937C11.0603 3.37772 11.2561 3.39608 11.4518 3.4328C11.6476 3.46951 11.8433 3.50623 12.0391 3.54294C12.4306 3.61637 12.8361 3.72652 13.2276 3.83666C14.0245 4.09367 14.8215 4.40575 15.4368 4.86469C16.066 5.30527 16.5553 5.856 16.9189 6.40673C17.2684 6.97582 17.4921 7.5449 17.6599 8.07728C17.8137 8.59129 17.8836 9.05023 17.9116 9.36231C17.9256 9.41738 17.9256 9.49081 17.9256 9.54588C17.9675 9.5826 18.0235 9.60096 18.0654 9.63767C18.2332 9.74782 18.401 9.85796 18.5548 9.94975C18.7086 10.0599 18.8344 10.1517 18.9603 10.2435C19.4497 10.5923 19.7293 10.8126 19.7293 10.8126C19.7293 10.8126 20.009 11.0145 20.4983 11.3633C20.9737 11.7304 21.6589 12.2995 22.4838 12.9604C24.0778 14.3372 26.1751 16.2831 28.0907 18.486C30.0063 20.689 31.768 23.0755 33.0264 24.9663C33.1942 25.1866 33.3201 25.4252 33.4599 25.6455C33.5997 25.8658 33.7255 26.0677 33.8514 26.2697C34.1031 26.6552 34.3128 27.004 34.4806 27.2793C34.6624 27.5547 34.7742 27.7934 34.8721 27.9402C34.956 28.0871 35.0119 28.1789 35.0119 28.1789C35.0119 28.1789 35.1937 28.5093 35.5293 29.0968C35.697 29.3905 35.8928 29.7393 36.1165 30.1615C36.3262 30.5837 36.5639 31.061 36.8296 31.575C36.9694 31.832 37.0953 32.1074 37.2351 32.3828C37.3749 32.6581 37.5008 32.9702 37.6406 33.2639C37.9202 33.8697 38.2138 34.5123 38.5075 35.1731C38.7871 35.8524 39.0668 36.5499 39.3604 37.2843C39.4303 37.4678 39.5002 37.6514 39.5841 37.8166C39.654 38.0002 39.7099 38.1838 39.7799 38.3674C39.9197 38.7345 40.0455 39.12 40.1853 39.4872C41.234 42.4795 42.1149 45.5635 42.6043 47.9317C42.6742 48.2254 42.7301 48.5008 42.8 48.7761C42.856 49.0515 42.9259 49.2901 42.9678 49.5471C43.0517 50.0244 43.1356 50.465 43.1915 50.8138C43.3174 51.5114 43.4013 51.9153 43.4013 51.9153C43.4013 51.9153 43.4152 52.0254 43.4572 52.209C43.4991 52.3926 43.5271 52.6679 43.583 53.0351C43.625 53.3839 43.6949 53.8245 43.7648 54.3018C43.8347 54.7974 43.9186 55.3482 43.9745 55.954C44.0305 56.5598 44.1004 57.2206 44.1703 57.9182C44.1843 58.1018 44.2122 58.267 44.2262 58.4506C44.2402 58.6342 44.2542 58.8177 44.2682 59.0013C44.2821 59.3685 44.3101 59.7356 44.3381 60.1395C44.4639 61.6632 44.4639 63.297 44.5059 64.9308C44.4639 66.5647 44.4639 68.1985 44.3381 69.7222C44.3101 70.1077 44.2961 70.4748 44.2682 70.842C44.2542 71.0256 44.2542 71.2091 44.2262 71.3744C44.2122 71.5579 44.1843 71.7415 44.1703 71.9067C44.1004 72.6043 44.0305 73.2652 43.9745 73.871C43.9186 74.4768 43.8207 75.0275 43.7648 75.5232C43.6949 76.0188 43.639 76.4411 43.583 76.7899C43.5271 77.1387 43.4991 77.414 43.4572 77.616C43.4292 77.7995 43.4013 77.9097 43.4013 77.9097C43.4013 77.9097 43.3313 78.3135 43.1915 79.0111C43.1356 79.3599 43.0517 79.7822 42.9678 80.2778C42.9119 80.5165 42.842 80.7735 42.786 81.0488C42.7301 81.3242 42.6602 81.5996 42.5903 81.8933C42.1009 84.2614 41.234 87.3455 40.1714 90.3378C40.0455 90.7049 39.9057 91.0904 39.7659 91.4576C39.696 91.6412 39.64 91.8248 39.5701 92.0083C39.5002 92.1919 39.4163 92.3755 39.3464 92.5407C39.0528 93.2566 38.7731 93.9542 38.4935 94.6518C38.1999 95.3127 37.9062 95.9552 37.6266 96.561C37.4868 96.8547 37.3609 97.1668 37.2211 97.4422C37.0813 97.7176 36.9415 97.9929 36.8156 98.2499C36.55 98.7639 36.3123 99.2412 36.1025 99.6635C35.8928 100.086 35.6831 100.434 35.5153 100.728C35.1797 101.316 34.9979 101.646 34.9979 101.646C34.9979 101.646 34.942 101.738 34.8581 101.885C34.7742 102.032 34.6484 102.27 34.4666 102.546C34.2988 102.821 34.0751 103.17 33.8374 103.555C33.7116 103.757 33.5857 103.959 33.4459 104.179C33.3061 104.4 33.1802 104.638 33.0124 104.859C31.768 106.749 30.0063 109.136 28.0767 111.339C26.1611 113.542 24.0638 115.469 22.4698 116.865C21.6449 117.525 20.9737 118.095 20.4843 118.462C19.995 118.81 19.7153 119.012 19.7153 119.012C19.7153 119.012 19.4357 119.214 18.9463 119.581C18.8205 119.673 18.6806 119.765 18.5408 119.875C18.387 119.967 18.2192 120.077 18.0514 120.187C17.7019 120.408 17.3104 120.665 16.8769 120.958C15.1291 122.023 12.7661 123.363 10.2913 124.336C9.67606 124.611 9.06084 124.813 8.44563 125.034C8.13802 125.144 7.83041 125.254 7.53678 125.364C7.24315 125.474 6.93554 125.548 6.64191 125.639C6.05466 125.805 5.48139 125.97 4.93608 126.135C4.39077 126.264 3.87342 126.374 3.39803 126.484C3.16033 126.539 2.93662 126.594 2.7129 126.631C2.48919 126.686 2.27945 126.704 2.0837 126.741C1.6922 126.796 1.35662 126.851 1.063 126.906C0.503704 126.998 0.182114 127.053 0.182114 127.053L0.126183 126.429C0.140163 126.447 0.447777 126.392 1.00706 126.3Z" fill="#DBDBDB"/>
</svg>
